{"title":"The Recruit - S02E07","uid":15735134,"size":1350801624,"categoryP":"video","categoryS":"tv_shows","magnet":"?xt=urn:btih:d220299befb0c321e0ac6c3b9ad2846efa63c1b3&amp;dn=The+Recruit+-+S02E07&amp;tr=udp%3A%2F%2Ftracker.leechers-paradise.org%3A6969&amp;tr=udp%3A%2F%2Fzer0day.ch%3A1337&amp;tr=udp%3A%2F%2Fopen.demonii.com%3A1337&amp;tr=udp%3A%2F%2Ftracker.coppersurfer.tk%3A6969&amp;tr=udp%3A%2F%2Fexodus.desync.com%3A6969","seeders":1,"leechers":1,"uploader":"Bullrout","files":1,"time":1472829581,"description":"The Recruit - S02E07\r\n\r\nTeamwork is tested as seven men remain in the running for their dream prize: an AFL contract. Paul Licuria pops in to the training session while the boys are pushed to their limits. It's a pressure test at the racetrack as Matt races to become king of The Pits and try for two-time captaincy, and Daniel leaves the team unimpressed with his lack of effort around his food. There's no game this week but the recruits puzzle their way through a Fitbit Challenge and one of the favourites makes a shock delist decision.\r\n\r\nComplete name : The Recruit - S02E07.mkv\r\nFormat : Matroska\r\nFormat version : Version 4 / Version 2\r\nFile size : 1.26 GiB\r\nDuration : 54mn 20s\r\nOverall bit rate mode : Variable\r\nOverall bit rate : 3 315 Kbps\r\nEncoded date : UTC 2016-09-02 11:33:58\r\nWriting application : mkvmerge v9.4.0 ('Knurl') 64bit\r\nWriting library : libebml v1.3.4 + libmatroska v1.4.5\r\n\r\nVideo\r\nID : 2\r\nFormat : AVC\r\nFormat/Info : Advanced Video Codec\r\nFormat profile :   \r\nFormat settings, CABAC : Yes\r\nFormat settings, ReFrames : 3 frames\r\nCodec ID : V_MPEG4/ISO/AVC\r\nDuration : 54mn 20s\r\nBit rate mode : Variable\r\nBit rate : 2 929 Kbps\r\nMaximum bit rate : 3 000 Kbps\r\nWidth : 1 280 pixels\r\nHeight : 720 pixels\r\nDisplay aspect ratio : 16:9\r\nFrame rate mode : Constant\r\nFrame rate : 25.000 fps\r\nStandard : PAL\r\nColor space : YUV\r\nChroma subsampling : 4:2:0\r\nBit depth : 8 bits\r\nScan type : Progressive\r\nBits/(Pixel*Frame) : 0.127\r\nStream size : 1.11 GiB (88%)\r\nWriting library : x264 core 112\r\nDefault : Yes\r\nForced : No\r\nColor range : Limited\r\nColor primaries : BT.709\r\nTransfer characteristics : BT.709\r\nMatrix coefficients : BT.709\r\n\r\nAudio\r\nID : 1\r\nFormat : AC-3\r\nFormat/Info : Audio Coding 3\r\nMode extension : CM (complete main)\r\nFormat settings, Endianness : Big\r\nCodec ID : A_AC3\r\nDuration : 54mn 20s\r\nBit rate mode : Constant\r\nBit rate : 384 Kbps\r\nChannel(s) : 6 channels\r\nChannel positions : Front: L C R, Side: L R, LFE\r\nSampling rate : 48.0 KHz\r\nFrame rate : 31.250 fps (1536 spf)\r\nCompression mode : Lossy\r\nStream size : 149 MiB (12%)\r\nDefault : Yes\r\nForced : No","torrent":{"xt":"urn:btih:d220299befb0c321e0ac6c3b9ad2846efa63c1b3","amp;dn":"The+Recruit+-+S02E07","amp;tr":["udp%3A%2F%2Ftracker.leechers-paradise.org%3A6969","udp%3A%2F%2Fzer0day.ch%3A1337","udp%3A%2F%2Fopen.demonii.com%3A1337","udp%3A%2F%2Ftracker.coppersurfer.tk%3A6969","udp%3A%2F%2Fexodus.desync.com%3A6969"],"infoHash":"d220299befb0c321e0ac6c3b9ad2846efa63c1b3","infoHashBuffer":{"type":"Buffer","data":[210,32,41,155,239,176,195,33,224,172,108,59,154,210,132,110,250,99,193,179]},"announce":[],"urlList":[]}}